<svg xmlns="http://www.w3.org/2000/svg" width="264" height="69" viewBox="0 0 264 69">
    <defs>
        <linearGradient id="a" x1="-41.995%" x2="32.721%" y1="-38.469%" y2="14.587%">
            <stop offset="0%" stop-color="#166180"/>
            <stop offset="100%" stop-color="#1F80A8"/>
        </linearGradient>
    </defs>
    <g fill="none" fill-rule="nonzero">
        <path fill="#0E1923" d="M34.29 67.748a7.62 7.62 0 0 1-3.827-1.039L4.988 51.75a7.804 7.804 0 0 1-3.89-6.685v-21.28a7.804 7.804 0 0 1 3.89-6.685L30.463 2.14a7.568 7.568 0 0 1 7.656 0l25.537 15.022a7.804 7.804 0 0 1 3.828 6.623v21.28a7.805 7.805 0 0 1-3.828 6.735L38.119 66.71a7.62 7.62 0 0 1-3.828 1.038z"/>
        <path fill="#FFF" d="M34.29 68.85a8.703 8.703 0 0 1-4.389-1.252L4.377 52.702A8.945 8.945 0 0 1 0 45.065v-21.28a8.945 8.945 0 0 1 4.377-7.637l25.55-14.896a8.7 8.7 0 0 1 8.728 0L64.18 16.274a8.944 8.944 0 0 1 4.401 7.51v21.281a8.945 8.945 0 0 1-4.376 7.687L38.655 67.66a8.703 8.703 0 0 1-4.364 1.189zm0-66.647a6.577 6.577 0 0 0-3.279.889L5.487 18.052a6.715 6.715 0 0 0-3.292 5.733v21.28A6.715 6.715 0 0 0 5.487 50.8L31.01 65.82a6.5 6.5 0 0 0 6.56 0l25.524-15.022a6.715 6.715 0 0 0 3.292-5.734v-21.28A6.716 6.716 0 0 0 63.095 18L37.57 3.092a6.577 6.577 0 0 0-3.28-.889z"/>
        <path fill="#1F80A8" d="M51.324 9.126l5.1 21.206 5.1 21.205L35.6 36.578 9.676 21.618 30.5 15.373l20.824-6.246" opacity=".4" style="mix-blend-mode:screen"/>
        <path fill="#FFF" d="M47.982 47.018l.075-14.183.075-14.183 10.35 7.148 10.349 7.16-10.425 7.023-10.424 7.035" opacity=".15" style="mix-blend-mode:screen"/>
        <path fill="#1F80A8" d="M40.413 10.678l9.29 6.234-10.225 5.27-10.225 5.27.923-11.504.935-11.504z" opacity=".3" style="mix-blend-mode:multiply"/>
        <path fill="url(#a)" d="M54.578 13.77l10.05 6.36-10.511 5.557-10.5 5.57.45-11.916.449-11.918z" opacity=".2" style="mix-blend-mode:multiply"/>
        <path fill="#1F80A8" d="M52.371 40.684l14.04 8.988-13.716 9.802-16.06 9.113-.312-18.139-.336-18.777z" opacity=".19" style="mix-blend-mode:screen"/>
        <path fill="#1F80A8" d="M26.173 43.663l-15.175 9.64-1.397-17.977L8.205 17.35" opacity=".4" style="mix-blend-mode:multiply"/>
        <path fill="#1F80A8" d="M40.488 45.491L18.854 57.997l1.434-22.608 1.446-22.62 20.2 10.114 20.2 10.102" opacity=".4" style="mix-blend-mode:multiply"/>
        <path fill="#1F80A8" d="M32.72 18.239l10.449 9.213-10.649 1.59-10.636 1.577.2-10.79.199-10.803" opacity=".18" style="mix-blend-mode:screen"/>
        <path fill="#F1F1F2" d="M39.715 41.736l3.903 23.496-20.213-8.687L3.18 47.857l16.31-14.809L35.8 18.239z" opacity=".2" style="mix-blend-mode:screen"/>
        <path fill="#1F80A8" d="M28.792 63.855l-12.096-7.36L4.614 49.12 17.27 42.3l12.644-6.822-.561 14.195-.561 14.183" opacity=".3" style="mix-blend-mode:multiply"/>
        <path fill="#1F80A8" d="M15.387 26.664l12.183-6.835 4.626 22.695 4.626 22.696-16.809-15.86-16.82-15.874z" opacity=".25" style="mix-blend-mode:screen"/>
        <path fill="#FFF" d="M46.835 37.129l-8.679 14.045-8.666 14.058-5.736-13.294-5.736-13.294 14.402-.751 14.415-.764" opacity=".05" style="mix-blend-mode:screen"/>
        <path fill="#1F80A8" d="M26.585 15.86l8.192-8.637 3.354 11.442 3.354 11.441-11.559-2.804-11.546-2.804z" opacity=".3" style="mix-blend-mode:multiply"/>
        <path fill="#1F80A8" d="M10.237 17.325l11.884-6.86 11.895-6.86-1.695 16.074-1.696 16.073-10.2-9.213-10.188-9.214" opacity=".25" style="mix-blend-mode:screen"/>
        <path fill="#1F80A8" d="M49.84 13.27L31.348 2.102 41.76 5.746l10.4 3.643 8.092 7.523 8.08 7.511z" opacity=".25" style="mix-blend-mode:screen"/>
        <path fill="#1F80A8" d="M29.478 39.908L8.704 51.913l3.391-18.202 3.392-18.213 17.382 6.196 17.395 6.209" opacity=".4" style="mix-blend-mode:multiply"/>
        <path fill="#FFF" d="M25.126 37.029a5.518 5.518 0 0 1-1.983 4.569 8.99 8.99 0 0 1-5.686 1.59h-8.89V22.533h8.204c1.459-.042 2.91.218 4.265.763a4.407 4.407 0 0 1 2.818 4.244 5.013 5.013 0 0 1-2.295 4.419 5.006 5.006 0 0 1 3.567 5.07zm-6.322-8.613a1.718 1.718 0 0 0-.586-1.34 2.164 2.164 0 0 0-1.46-.512h-2.842v3.855h2.568c1.547 0 2.32-.663 2.32-2.003zm.972 8.262c0-1.552-.935-2.328-2.805-2.328h-3.055v4.77h3.092c1.846 0 2.768-.814 2.768-2.442zM43.992 40.997a9.096 9.096 0 0 1-6.671 2.654c-2.668.05-5.27-.836-7.357-2.504a10.22 10.22 0 0 1-3.741-8.412 10.031 10.031 0 0 1 3.74-8.312 11.033 11.033 0 0 1 7.034-2.416 9.79 9.79 0 0 1 6.82 2.504l-1.908 2.003a7.016 7.016 0 0 0-4.888-1.778 6.745 6.745 0 0 0-4.788 1.953 7.852 7.852 0 0 0-2.494 6.096 7.625 7.625 0 0 0 2.644 6.084 7.273 7.273 0 0 0 9.738.088l1.87 2.04zM60.015 28.329a5.629 5.629 0 0 1-2.32 4.932 7.46 7.46 0 0 1-4.264 1.252h-3.74v8.762h-3.23V22.533h7.407a6.95 6.95 0 0 1 3.915 1.051 5.44 5.44 0 0 1 2.232 4.745zm-3.38 0a3.173 3.173 0 0 0-1.084-2.604 3.606 3.606 0 0 0-2.245-.701h-3.578v6.81h3.578a3.21 3.21 0 0 0 2.295-.826 3.462 3.462 0 0 0 1.035-2.642v-.037z"/>
        <g fill="#0E1923">
            <path d="M90.939 36.415a4.477 4.477 0 0 1-1.621 3.756 7.26 7.26 0 0 1-4.651 1.252H77.46V24.548h6.683a8.5 8.5 0 0 1 3.467.626 3.606 3.606 0 0 1 2.306 3.53 4.085 4.085 0 0 1-1.87 3.605 4.105 4.105 0 0 1 2.893 4.106zm-5.15-7.01a1.392 1.392 0 0 0-.474-1.101 1.729 1.729 0 0 0-1.247-.413h-2.244v3.142h2.095c1.247 0 1.87-.539 1.87-1.628zm.798 6.722c0-1.251-.76-1.89-2.282-1.89h-2.494v3.893h2.494c1.521 0 2.282-.663 2.282-2.003zM105.353 36.49H96.85c0 1.503.91 2.266 2.656 2.266a4.528 4.528 0 0 0 3.579-1.201l1.72 2.24a7.466 7.466 0 0 1-5.199 2.066c-2.668 0-4.576-.835-5.723-2.504a6.666 6.666 0 0 1-1.073-3.755 7.773 7.773 0 0 1 .886-3.555 5.857 5.857 0 0 1 5.698-3.255 5.59 5.59 0 0 1 4.988 2.278 7.131 7.131 0 0 1 1.097 3.98c0 .483-.042.965-.125 1.44zm-3.74-2.428a1.945 1.945 0 0 0-.555-1.618 1.928 1.928 0 0 0-1.615-.548 2.189 2.189 0 0 0-1.735.517 2.207 2.207 0 0 0-.759 1.649h4.664zM116.177 38.168l-1.97 3.593h-2.345a3.076 3.076 0 0 1-2.606-1.252 4.394 4.394 0 0 1-.773-2.717v-5.245h-2.144V29.38h2.144v-4.832h4.252v4.832h2.681v3.167h-2.718v4.57c-.024.273.002.549.075.813.1.2.361.288.798.288l2.606-.05zM126.614 38.168l-1.92 3.593h-2.395a3.076 3.076 0 0 1-2.606-1.252 4.393 4.393 0 0 1-.81-2.667v-5.295h-2.108V29.38h2.108v-4.832h4.264v4.832h2.681v3.167h-2.68v4.57c-.045.269-.045.544 0 .813.099.2.36.288.797.288l2.669-.05zM140.567 36.49h-8.492c0 1.503.898 2.266 2.656 2.266a4.49 4.49 0 0 0 3.566-1.189l1.721 2.24a7.466 7.466 0 0 1-5.2 2.066 6.398 6.398 0 0 1-5.71-2.503 6.578 6.578 0 0 1-1.085-3.756 7.773 7.773 0 0 1 .885-3.555 5.869 5.869 0 0 1 5.76-3.267 5.578 5.578 0 0 1 4.989 2.278 7.031 7.031 0 0 1 1.06 3.993c-.003.48-.053.958-.15 1.427zm-3.74-2.428a1.957 1.957 0 0 0-.558-1.607 1.94 1.94 0 0 0-1.6-.559 2.201 2.201 0 0 0-1.731.521 2.22 2.22 0 0 0-.763 1.645h4.651zM151.914 32.81a12.063 12.063 0 0 0-2.033-.263 4.318 4.318 0 0 0-2.793 1.102v7.774h-4.314V29.017l3.018 1.415a7.6 7.6 0 0 1 3.566-1.252c.6-.006 1.196.079 1.77.25l.786 3.38zM168.336 39.67a7.466 7.466 0 0 1-5.437 2.153 9.254 9.254 0 0 1-5.985-2.04 8.276 8.276 0 0 1-3.042-6.848 8.162 8.162 0 0 1 3.092-6.785 9.018 9.018 0 0 1 5.723-1.965 7.963 7.963 0 0 1 5.487 2.103l-1.559 1.64a5.636 5.636 0 0 0-3.965-1.452 5.5 5.5 0 0 0-3.903 1.59 6.422 6.422 0 0 0-1.995 5.007 6.182 6.182 0 0 0 2.157 4.945 5.906 5.906 0 0 0 7.93.075l1.497 1.577zM182.302 41.635l-2.631-1.251a5.672 5.672 0 0 1-3.741 1.251 5.562 5.562 0 0 1-4.238-1.692 5.608 5.608 0 0 1-1.56-4.304 6.271 6.271 0 0 1 1.945-4.707 5.326 5.326 0 0 1 3.74-1.502 5.487 5.487 0 0 1 3.829 1.465v-1.177h2.68l-.024 11.917zm-2.606-3.605v-4.406a4.312 4.312 0 0 0-3.592-2.128 2.767 2.767 0 0 0-2.705 1.677 5.715 5.715 0 0 0-.487 2.504c-.01.871.196 1.732.599 2.503a2.68 2.68 0 0 0 2.494 1.653 4.98 4.98 0 0 0 3.69-1.803zM192.764 31.52h-1.247a4.98 4.98 0 0 0-3.38 1.653v8.275h-2.656V29.543l2.42 1.152a5.55 5.55 0 0 1 3.117-1.252c.367-.007.733.014 1.097.062l.649 2.016zM206.455 29.33a4.563 4.563 0 0 1-1.895 4.018 5.98 5.98 0 0 1-3.467.977h-3.018v7.123h-2.656v-16.9h6.036a5.595 5.595 0 0 1 3.18.864 4.413 4.413 0 0 1 1.82 3.918zm-2.756 0a2.508 2.508 0 0 0-.885-2.115 2.835 2.835 0 0 0-1.82-.576h-2.919v5.545h2.918a2.65 2.65 0 0 0 1.87-.663c.576-.568.88-1.357.836-2.166v-.025zM218.425 36.14h-8.504c.325 2.391 1.46 3.58 3.404 3.58a4.266 4.266 0 0 0 2.943-1.014l1.048 1.715a5.784 5.784 0 0 1-4.09 1.39 5.63 5.63 0 0 1-5.15-2.617 6.151 6.151 0 0 1-.998-3.317 7.598 7.598 0 0 1 .81-3.63 5.345 5.345 0 0 1 5.2-2.817 4.664 4.664 0 0 1 4.851 3.343 9.523 9.523 0 0 1 .486 3.367zm-2.705-1.728c-.1-2.065-.998-3.104-2.681-3.104-1.87 0-2.906 1.039-3.093 3.104h5.774zM232.291 35.502a6.047 6.047 0 0 1-1.756 4.496 5.998 5.998 0 0 1-4.478 1.763 5.923 5.923 0 0 1-4.402-1.765 6.11 6.11 0 0 1-1.746-4.444 5.782 5.782 0 0 1 1.846-4.37 6.035 6.035 0 0 1 4.302-1.677 6.146 6.146 0 0 1 4.339 1.678 5.831 5.831 0 0 1 1.895 4.319zm-2.855 0a4.657 4.657 0 0 0-.81-2.805 2.989 2.989 0 0 0-2.495-1.251 2.902 2.902 0 0 0-2.493 1.251 4.582 4.582 0 0 0-.823 2.805 4.922 4.922 0 0 0 .798 2.929 2.89 2.89 0 0 0 2.494 1.252 2.989 2.989 0 0 0 2.493-1.252c.575-.866.867-1.89.836-2.93zM246.033 35.752a5.732 5.732 0 0 1-1.896 4.607 5.784 5.784 0 0 1-3.903 1.352 5.436 5.436 0 0 1-3.678-1.252v5.858h-2.681V29.505l2.68 1.39a5.635 5.635 0 0 1 3.829-1.39 5.313 5.313 0 0 1 3.74 1.503 6.184 6.184 0 0 1 1.909 4.744zm-2.781 0a5.853 5.853 0 0 0-.474-2.504 2.817 2.817 0 0 0-2.706-1.665 4.324 4.324 0 0 0-3.591 2.116v4.356a5.091 5.091 0 0 0 3.74 1.69 2.668 2.668 0 0 0 2.495-1.64c.37-.75.554-1.579.536-2.416v.063zM250.634 41.448h-2.656v-17.2l2.656 1.464zM263.801 36.14h-8.504c.324 2.391 1.46 3.58 3.404 3.58a4.266 4.266 0 0 0 2.943-1.014l1.06 1.715a5.846 5.846 0 0 1-4.077 1.39 5.63 5.63 0 0 1-5.15-2.617 6.277 6.277 0 0 1-.998-3.317 7.598 7.598 0 0 1 .81-3.63 5.345 5.345 0 0 1 5.2-2.817 4.664 4.664 0 0 1 4.851 3.343 9.523 9.523 0 0 1 .461 3.367zm-2.68-1.728c-.1-2.065-.998-3.104-2.681-3.104-1.684 0-2.906 1.039-3.093 3.104h5.773z"/>
        </g>
    </g>
</svg>
