<svg xmlns="http://www.w3.org/2000/svg" width="19" height="19" viewBox="0 0 19 19">
    <g fill="#4B9FD8" fill-rule="evenodd">
        <path d="M17.16 13.104H8.424a.312.312 0 0 0 0 .624h8.736a.312.312 0 0 0 0-.624zM15.912 6.864h-1.248a.312.312 0 0 0 0 .624h1.248a.312.312 0 0 0 0-.624zM15.912 10.608h-1.248a.312.312 0 0 0 0 .624h1.248a.312.312 0 0 0 0-.624zM15.912 8.736h-1.248a.312.312 0 0 0 0 .624h1.248a.312.312 0 0 0 0-.624zM7.8 14.352h-.312V.936A.937.937 0 0 0 6.552 0H2.808a.937.937 0 0 0-.936.936v12.48a.312.312 0 0 0 .624 0V.936c0-.172.14-.312.312-.312h3.744c.172 0 .312.14.312.312v14.976c0 .172-.14.312-.312.312H2.808a.312.312 0 0 1-.312-.312v-1.248a.312.312 0 0 0-.312-.312H1.56c-.56 0-.936-.376-.936-.936V2.184c0-.333.175-.634.469-.805a.312.312 0 0 0-.314-.54C.3 1.12 0 1.635 0 2.184v11.232c0 .904.656 1.56 1.56 1.56h.312v.936c0 .516.42.936.936.936h3.744c.516 0 .936-.42.936-.936v-.936H7.8a.312.312 0 0 0 0-.624zM16.536 14.352a.312.312 0 0 0-.312.312v3.432H9.36v-3.432a.312.312 0 1 0-.624 0v3.744c0 .172.14.312.312.312h7.488c.172 0 .312-.14.312-.312v-3.744a.312.312 0 0 0-.312-.312z"/>
        <path d="M10.92 16.848h3.12a.312.312 0 0 0 0-.624h-3.12a.312.312 0 0 0 0 .624zM10.92 15.6h3.744a.312.312 0 0 0 0-.624H10.92a.312.312 0 0 0 0 .624zM9.672 9.36h1.248a.312.312 0 0 0 0-.624H9.672a.312.312 0 0 0 0 .624zM9.672 7.488h1.248a.312.312 0 0 0 0-.624H9.672a.312.312 0 0 0 0 .624zM9.672 11.232h1.248a.312.312 0 0 0 0-.624H9.672a.312.312 0 0 0 0 .624zM17.16.624H8.424a.312.312 0 0 0 0 .624h8.736c.516 0 .936.42.936.936v11.544a.94.94 0 0 1-.463.808.312.312 0 1 0 .316.538c.476-.28.771-.795.771-1.346V2.184c0-.86-.7-1.56-1.56-1.56z"/>
        <path d="M13.416 8.736h-1.248a.312.312 0 0 0 0 .624h1.248a.312.312 0 0 0 0-.624zM16.224 3.432a.312.312 0 0 0-.312-.312h-6.24a.312.312 0 0 0-.312.312v1.872c0 .172.14.312.312.312h6.24c.172 0 .312-.14.312-.312V3.432zm-.624 1.56H9.984V3.744H15.6v1.248zM13.416 10.608h-1.248a.312.312 0 0 0 0 .624h1.248a.312.312 0 0 0 0-.624zM13.416 6.864h-1.248a.312.312 0 0 0 0 .624h1.248a.312.312 0 0 0 0-.624z"/>
    </g>
</svg>
