<svg xmlns="http://www.w3.org/2000/svg" width="15" height="15" viewBox="0 0 15 15">
    <path fill="#4B9FD8" fill-rule="evenodd" d="M14.65 11.567a.71.71 0 0 1-.217.621l-2.064 2.05a1.162 1.162 0 0 1-.364.264c-.15.072-.298.119-.443.14-.01 0-.041.002-.093.007a2.111 2.111 0 0 1-.201.008c-.197 0-.515-.033-.955-.1-.44-.068-.977-.234-1.613-.498-.637-.264-1.358-.66-2.165-1.187-.807-.528-1.665-1.253-2.576-2.174a17.01 17.01 0 0 1-1.8-2.05A14.604 14.604 0 0 1 1.011 6.84 9.746 9.746 0 0 1 .36 5.333 7.995 7.995 0 0 1 .065 4.17 3.848 3.848 0 0 1 .003 3.4l.015-.31a1.51 1.51 0 0 1 .14-.443c.072-.15.16-.271.264-.365L2.485.217A.683.683 0 0 1 2.982 0c.134 0 .253.039.357.116.103.078.191.174.263.288l1.66 3.152a.756.756 0 0 1 .078.543.968.968 0 0 1-.264.497l-.76.76a.259.259 0 0 0-.054.102.383.383 0 0 0-.023.116c.041.217.134.466.279.745.124.249.315.552.574.909.259.357.626.768 1.102 1.234.465.476.879.846 1.241 1.11.362.264.665.458.908.582.243.125.429.2.558.225l.194.04a.37.37 0 0 0 .101-.024.26.26 0 0 0 .101-.054l.884-.9a.95.95 0 0 1 .652-.25.81.81 0 0 1 .419.094h.016l2.994 1.77c.217.135.347.305.388.512z"/>
</svg>
