<svg xmlns="http://www.w3.org/2000/svg" width="16" height="16" viewBox="0 0 16 16">
    <g fill="none" fill-rule="evenodd">
        <path fill="#FFF" d="M-846-738H521v2514H-846z"/>
        <text fill="#001C42" font-family="Helvetica" font-size="30" letter-spacing=".232" transform="translate(-754 -668)">
            <tspan x="0" y="29">ASSETS</tspan>
        </text>
        <g fill="#4B9FD8">
            <path d="M5.026 15.01c6.038 0 9.341-5.007 9.341-9.341 0-.141 0-.282-.006-.423A6.689 6.689 0 0 0 16 3.543a6.654 6.654 0 0 1-1.889.519 3.303 3.303 0 0 0 1.447-1.819 6.53 6.53 0 0 1-2.087.794A3.277 3.277 0 0 0 11.076 2a3.287 3.287 0 0 0-3.284 3.285c0 .256.032.505.083.749a9.323 9.323 0 0 1-6.767-3.432 3.292 3.292 0 0 0 1.018 4.386 3.32 3.32 0 0 1-1.486-.41v.045a3.29 3.29 0 0 0 2.632 3.22 3.2 3.2 0 0 1-.865.115c-.21 0-.416-.019-.614-.057a3.283 3.283 0 0 0 3.067 2.28A6.585 6.585 0 0 1 .78 13.588c-.262 0-.525-.013-.781-.045a9.339 9.339 0 0 0 5.026 1.466"/>
        </g>
    </g>
</svg>
